<svg id="Group_29" data-name="Group 29"
  xmlns="http://www.w3.org/2000/svg"
  xmlns:xlink="http://www.w3.org/1999/xlink" width="880.763" height="1644.722" viewBox="0 0 880.763 1644.722">
  <defs>
    <clipPath id="clip-path">
      <rect id="Rectangle_18" data-name="Rectangle 18" width="880.763" height="1644.722" fill="none"/>
    </clipPath>
  </defs>
  <rect id="Rectangle_15" data-name="Rectangle 15" width="210.925" height="461.558" transform="translate(236.053 365.089)"/>
  <rect id="Rectangle_16" data-name="Rectangle 16" width="880.763" height="139.831" transform="translate(0 254.094)"/>
  <g id="Group_28" data-name="Group 28">
    <g id="Group_27" data-name="Group 27" clip-path="url(#clip-path)">
      <path id="Path_12" data-name="Path 12" d="M440.374,300.227C197.171,300.227,0,497.4,0,740.616S197.171,1180.99,440.374,1180.99c243.218,0,440.389-197.156,440.389-440.374S683.592,300.227,440.374,300.227m0,670.388c-127.027,0-230-102.972-230-230s102.972-230,230-230,230,102.972,230,230-102.975,230-230,230" transform="translate(0 463.731)" fill="#3e9e97"/>
      <rect id="Rectangle_17" data-name="Rectangle 17" width="209.332" height="742.502" transform="translate(670.065 432.962)" fill="#3e9e97"/>
      <path id="Path_13" data-name="Path 13" d="M197.864,0c57.913,0,104.863,46.263,104.863,103.331s-46.95,103.331-104.863,103.331S93,160.4,93,103.331,139.951,0,197.864,0" transform="translate(143.65)" fill="#3e9e97"/>
    </g>
  </g>
</svg>
